<svg viewBox="-768 -337 1536 674" width="1536" height="674" style="background-color: rgb(255, 255, 255);" xmlns="http://www.w3.org/2000/svg"><path d="M260.4443072831052,-183.3896213873615L260.4443072831052,-24.202533403266962M260.4443072831052,-24.202533403266962L249.93814450488262,-19.574221640940795M260.4443072831052,-24.202533403266962L272.176553403658,-20.057905318950066M261.6703906254354,-15.429593556623901L272.176553403658,-20.057905318950066M272.176553403658,-179.2449933030446L272.176553403658,-20.057905318950066" style="fill:none;stroke:rgb(0,0,0);stroke-width:1;stroke-linecap:round"></path><path d="M272.176553403658,-20.057905318950066L261.6703906254354,-15.429593556623901L260.4443072831052,-24.202533403266962zM261.6703906254354,-15.429593556623901L249.93814450488264,-19.574221640940795L260.4443072831052,-24.202533403266962z" style="fill:rgb(238,238,238); fill-opacity: 0.4"></path><path d="M249.93814450488262,-178.76130962503532L249.93814450488262,-19.574221640940795M249.93814450488262,-19.574221640940795L261.6703906254354,-15.429593556623901M261.6703906254354,-174.61668154071845L261.6703906254354,-15.429593556623901" style="fill:none;stroke:rgb(0,0,0);stroke-width:1;stroke-linecap:round"></path><path d="M272.176553403658,-20.057905318950066L260.4443072831052,-24.202533403266962L260.4443072831052,-183.3896213873615zM260.4443072831052,-24.202533403266962L249.93814450488264,-19.574221640940795L249.93814450488264,-178.76130962503535zM261.6703906254354,-15.429593556623901L272.176553403658,-20.057905318950066L272.176553403658,-179.24499330304462zM249.93814450488264,-19.574221640940795L261.6703906254354,-15.429593556623901L261.6703906254354,-174.61668154071845zM260.4443072831052,-183.3896213873615L260.4443072831052,-24.202533403266962L249.93814450488264,-178.76130962503535zM272.176553403658,-179.24499330304462L272.176553403658,-20.057905318950066L260.4443072831052,-183.3896213873615z" style="fill:rgb(238,238,238); fill-opacity: 0.4"></path><path d="M199.94335578466,-113.62751236279082L199.94335578466,-63.56416546085954M199.94335578466,-63.56416546085954L136.90638200632884,-35.79429616048546M199.94335578466,-63.56416546085954L240.53025831832673,-49.22610824930982" style="fill:none;stroke:rgb(0,0,0);stroke-width:1;stroke-linecap:round"></path><path d="M241.69653500684973,-97.07756008081327L246.67097717653206,-95.32024843661259L254.28854868986718,-96.42772735630375z" style="fill:rgb(0,0,0)"></path><path d="M249.93814450488264,-178.76130962503535L249.93814450488264,-19.574221640940795L261.6703906254354,-174.61668154071845z" style="fill:rgb(238,238,238); fill-opacity: 0.4"></path><path d="M240.15934768166457,-91.78501031053696L244.1837560916909,-86.75672302708172L244.1837560916909,-91.97623241707173zM241.69653500684973,-97.07756008081327L240.15934768166457,-91.78501031053696L244.1837560916909,-91.97623241707173zM246.67097717653206,-95.32024843661259L248.20816450171722,-88.94162023031414L254.28854868986718,-96.42772735630375z" style="fill:rgb(0,0,0)"></path><path d="M227.0056086747911,-84.40869102037722L244.18375609169084,-91.97623241707169" style="fill:none;stroke:rgb(0,0,0);stroke-width:1;stroke-linecap:round"></path><path d="M244.1837560916909,-86.75672302708172L248.20816450171722,-88.94162023031414L244.1837560916909,-91.97623241707173z" style="fill:rgb(0,0,0)"></path><path d="M261.6703906254354,-174.61668154071845L261.6703906254354,-15.429593556623901L272.176553403658,-179.24499330304462z" style="fill:rgb(238,238,238); fill-opacity: 0.4"></path><path d="M246.67097717653206,-95.32024843661259L241.69653500684973,-97.07756008081327L244.1837560916909,-91.97623241707173zM248.20816450171722,-88.94162023031414L246.67097717653206,-95.32024843661259L244.1837560916909,-91.97623241707173z" style="fill:rgb(0,0,0)"></path><path d="M260.4443072831052,-183.3896213873615L249.93814450488262,-178.76130962503532M260.4443072831052,-183.3896213873615L272.176553403658,-179.2449933030446" style="fill:none;stroke:rgb(0,0,0);stroke-width:1;stroke-linecap:round"></path><path d="M272.176553403658,-179.24499330304462L260.4443072831052,-183.3896213873615L249.93814450488264,-178.76130962503535zM240.53025831832676,-49.22610824930982L199.94335578466007,-63.56416546085954L199.94335578466007,-113.62751236279082z" style="fill:rgb(238,238,238); fill-opacity: 0.4"></path><path d="M261.6703906254354,-174.61668154071845L272.176553403658,-179.2449933030446M249.93814450488262,-178.76130962503532L261.6703906254354,-174.61668154071845M199.94335578466,-113.62751236279082L136.90638200632884,-85.85764306241676M199.94335578466,-113.62751236279082L240.53025831832673,-99.2894551512411" style="fill:none;stroke:rgb(0,0,0);stroke-width:1;stroke-linecap:round"></path><path d="M261.6703906254354,-174.61668154071845L272.176553403658,-179.24499330304462L249.93814450488264,-178.76130962503535z" style="fill:rgb(238,238,238); fill-opacity: 0.4"></path><path d="M177.4932845399955,-21.456238948935734L240.53025831832673,-49.22610824930982M240.53025831832673,-99.2894551512411L240.53025831832673,-49.22610824930982" style="fill:none;stroke:rgb(0,0,0);stroke-width:1;stroke-linecap:round"></path><path d="M199.94335578466007,-113.62751236279082L199.94335578466007,-63.56416546085954L136.90638200632884,-85.85764306241676zM240.53025831832676,-99.2894551512411L240.53025831832676,-49.22610824930982L199.94335578466007,-113.62751236279082zM240.53025831832676,-49.22610824930982L177.4932845399955,-21.45623894893573L199.94335578466007,-63.56416546085954zM199.94335578466007,-63.56416546085954L136.90638200632884,-35.79429616048545L136.90638200632884,-85.85764306241676zM240.53025831832676,-99.2894551512411L199.94335578466007,-113.62751236279082L136.90638200632884,-85.85764306241676zM177.4932845399955,-21.45623894893573L136.90638200632884,-35.79429616048545L199.94335578466007,-63.56416546085954z" style="fill:rgb(238,238,238); fill-opacity: 0.4"></path><path d="M177.4932845399955,-71.51958585086702L240.53025831832673,-99.2894551512411" style="fill:none;stroke:rgb(0,0,0);stroke-width:1;stroke-linecap:round"></path><path d="M177.4932845399955,-21.45623894893573L240.53025831832676,-49.22610824930982L240.53025831832676,-99.2894551512411z" style="fill:rgb(238,238,238); fill-opacity: 0.4"></path><path d="M136.90638200632884,-85.85764306241676L136.90638200632884,-35.79429616048546M136.90638200632884,-35.79429616048546L177.4932845399955,-21.456238948935734M114.07148395000391,-24.215507147619967L149.7241870083905,-39.02180405805906M114.07148395000391,-17.952095879631965L149.7241870083905,-39.02180405805906M119.14929992503399,-16.15826556948918L149.7241870083905,-39.02180405805906M119.14929992503399,-22.421676837477182L149.7241870083905,-39.02180405805906M98.99269630136135,-84.56138012291908L98.99269630136135,-15.750771009604483M98.99269630136135,-15.750771009604483L35.95572252303016,12.0190982907696M98.99269630136135,-15.750771009604483L154.7782092203268,3.9564701415105947M136.90638200632884,-85.85764306241676L177.4932845399955,-71.51958585086702" style="fill:none;stroke:rgb(0,0,0);stroke-width:1;stroke-linecap:round"></path><path d="M177.4932845399955,-71.51958585086702L240.53025831832676,-99.2894551512411L136.90638200632884,-85.85764306241676zM136.90638200632884,-85.85764306241676L136.90638200632884,-35.79429616048545L177.4932845399955,-71.51958585086702zM177.4932845399955,-71.51958585086702L177.4932845399955,-21.45623894893573L240.53025831832676,-99.2894551512411zM136.90638200632884,-35.79429616048545L177.4932845399955,-21.45623894893573L177.4932845399955,-71.51958585086702z" style="fill:rgb(238,238,238); fill-opacity: 0.4"></path><path d="M114.07148364889579,-17.95209554305326L114.07148364889579,-24.215506811041262L149.7241816444926,-39.021801856108844zM119.14929962392588,-16.158265232910477L114.07148364889579,-17.95209554305326L149.7241816444926,-39.021801856108844zM114.07148364889579,-24.215506811041262L119.14929962392588,-22.421676500898478L149.7241816444926,-39.021801856108844zM119.14929962392588,-22.421676500898478L119.14929962392588,-16.158265232910477L149.7241816444926,-39.021801856108844z" style="fill:rgb(255,187,187); fill-opacity: 0.4"></path><path d="M177.4932845399955,-71.51958585086702L177.4932845399955,-21.456238948935734M114.07148395000391,-24.215507147619967L114.07148395000391,-17.952095879631965M114.07148395000391,-17.952095879631965L119.14929992503399,-16.15826556948918M114.07148229000123,-24.215506212403326L114.07148229000123,-17.952094944415318M114.07148229000123,-17.952094944415318L51.034508511670026,9.817774355958761M114.07148229000123,-17.952094944415318L119.14929826503129,-16.158264634272534" style="fill:none;stroke:rgb(0,0,0);stroke-width:1;stroke-linecap:round"></path><path d="M114.07148364889579,-24.215506811041262L114.07148364889579,-17.95209554305326L119.14929962392588,-16.158265232910477z" style="fill:rgb(255,187,187); fill-opacity: 0.4"></path><path d="M119.14929826503132,-16.158264634272534L114.07148229000123,-17.952094944415318L114.07148229000123,-24.215506212403323z" style="fill:rgb(153,221,255); fill-opacity: 0.4"></path><path d="M114.07148395000391,-24.215507147619967L119.14929992503399,-22.421676837477182M114.07148229000123,-24.215506212403326L51.034508511670026,3.554363087970757M114.07148229000123,-24.215506212403326L119.14929826503129,-22.42167590226054M119.14929992503399,-16.15826556948918L119.14929992503399,-22.421676837477182M56.1123244867001,11.611604666101547L119.14929826503129,-16.158264634272534M119.14929826503129,-22.42167590226054L119.14929826503129,-16.158264634272534" style="fill:none;stroke:rgb(0,0,0);stroke-width:1;stroke-linecap:round"></path><path d="M114.07148364889579,-24.215506811041262L119.14929962392588,-16.158265232910477L119.14929962392588,-22.421676500898478z" style="fill:rgb(255,187,187); fill-opacity: 0.4"></path><path d="M119.14929826503132,-22.42167590226054L119.14929826503132,-16.158264634272534L114.07148229000123,-24.215506212403323z" style="fill:rgb(153,221,255); fill-opacity: 0.4"></path><path d="M56.1123244867001,5.348193398113543L119.14929826503129,-22.42167590226054" style="fill:none;stroke:rgb(0,0,0);stroke-width:1;stroke-linecap:round"></path><path d="M154.7782092203268,3.956470141510594L98.99269630136138,-15.750771009604483L98.99269630136138,-84.56138012291908z" style="fill:rgb(238,238,238); fill-opacity: 0.4"></path><path d="M98.99269630136135,-84.56138012291908L35.95572252303016,-56.79151082254499M98.99269630136135,-84.56138012291908L154.7782092203268,-64.85413897180399" style="fill:none;stroke:rgb(0,0,0);stroke-width:1;stroke-linecap:round"></path><path d="M114.07148229000123,-24.215506212403323L114.07148229000123,-17.952094944415318L51.034508511670026,3.5543630879707595zM119.14929826503132,-16.158264634272534L56.1123244867001,11.611604666101549L114.07148229000123,-17.952094944415318z" style="fill:rgb(153,221,255); fill-opacity: 0.4"></path><path d="M98.99269630136138,-84.56138012291908L98.99269630136138,-15.750771009604483L35.95572252303017,-56.79151082254499z" style="fill:rgb(238,238,238); fill-opacity: 0.4"></path><path d="M119.14929826503132,-22.42167590226054L114.07148229000123,-24.215506212403323L51.034508511670026,3.5543630879707595zM56.1123244867001,11.611604666101549L119.14929826503132,-16.158264634272534L119.14929826503132,-22.42167590226054z" style="fill:rgb(153,221,255); fill-opacity: 0.4"></path><path d="M91.7412354419956,31.726339441884672L154.7782092203268,3.9564701415105947M154.7782092203268,-64.85413897180399L154.7782092203268,3.9564701415105947" style="fill:none;stroke:rgb(0,0,0);stroke-width:1;stroke-linecap:round"></path><path d="M154.7782092203268,-64.85413897180399L154.7782092203268,3.956470141510594L98.99269630136138,-84.56138012291908zM154.7782092203268,3.956470141510594L91.74123544199561,31.726339441884676L98.99269630136138,-15.750771009604483zM98.99269630136138,-15.750771009604483L35.95572252303017,12.019098290769602L35.95572252303017,-56.79151082254499zM91.74123544199561,31.726339441884676L35.95572252303017,12.019098290769602L98.99269630136138,-15.750771009604483z" style="fill:rgb(238,238,238); fill-opacity: 0.4"></path><path d="M114.07148229000123,-17.952094944415318L51.034508511670026,9.817774355958765L51.034508511670026,3.5543630879707595zM56.1123244867001,11.611604666101549L51.034508511670026,9.817774355958765L114.07148229000123,-17.952094944415318zM56.1123244867001,5.348193398113546L119.14929826503132,-22.42167590226054L51.034508511670026,3.5543630879707595z" style="fill:rgb(153,221,255); fill-opacity: 0.4"></path><path d="M35.95572252303016,-56.79151082254499L35.95572252303016,12.0190982907696M35.95572252303016,12.0190982907696L91.7412354419956,31.726339441884672" style="fill:none;stroke:rgb(0,0,0);stroke-width:1;stroke-linecap:round"></path><path d="M56.1123244867001,5.348193398113546L56.1123244867001,11.611604666101549L119.14929826503132,-22.42167590226054z" style="fill:rgb(153,221,255); fill-opacity: 0.4"></path><path d="M154.7782092203268,-64.85413897180399L98.99269630136138,-84.56138012291908L35.95572252303017,-56.79151082254499z" style="fill:rgb(238,238,238); fill-opacity: 0.4"></path><path d="M91.7412354419956,-37.084269671429915L154.7782092203268,-64.85413897180399" style="fill:none;stroke:rgb(0,0,0);stroke-width:1;stroke-linecap:round"></path><path d="M91.74123544199561,31.726339441884676L154.7782092203268,3.956470141510594L154.7782092203268,-64.85413897180399z" style="fill:rgb(238,238,238); fill-opacity: 0.4"></path><path d="M51.034508511670026,3.554363087970757L51.034508511670026,9.817774355958761M51.034508511670026,9.817774355958761L56.1123244867001,11.611604666101547M51.034508511670026,3.554363087970757L56.1123244867001,5.348193398113543" style="fill:none;stroke:rgb(0,0,0);stroke-width:1;stroke-linecap:round"></path><path d="M51.034508511670026,3.5543630879707595L51.034508511670026,9.817774355958765L56.1123244867001,5.348193398113546zM51.034508511670026,9.817774355958765L56.1123244867001,11.611604666101549L56.1123244867001,5.348193398113546z" style="fill:rgb(153,221,255); fill-opacity: 0.4"></path><path d="M56.1123244867001,5.348193398113543L56.1123244867001,11.611604666101547M-0.380068415798819,-52.99152242187441L-0.380068415798819,30.673734276268235M-0.380068415798819,30.673734276268235L-52.91088375241396,53.81529372469052M-0.380068415798819,30.673734276268235L67.44826966382571,54.63532117350156M35.95572252303016,-56.79151082254499L91.7412354419956,-37.084269671429915M32.42126086104914,24.00952114111809L66.41343546927294,12.060349924916087M32.42126086104914,34.448539921098096L66.41343546927294,12.060349924916087M40.884287385212126,37.4382570690292L66.41343546927294,12.060349924916087M40.884287385212126,26.999238289049188L66.41343546927294,12.060349924916087" style="fill:none;stroke:rgb(0,0,0);stroke-width:1;stroke-linecap:round"></path><path d="M35.95572252303017,-56.79151082254499L35.95572252303017,12.019098290769602L91.74123544199561,-37.084269671429915zM91.74123544199561,-37.084269671429915L154.7782092203268,-64.85413897180399L35.95572252303017,-56.79151082254499zM35.95572252303017,12.019098290769602L91.74123544199561,31.726339441884676L91.74123544199561,-37.084269671429915zM91.74123544199561,-37.084269671429915L91.74123544199561,31.726339441884676L154.7782092203268,-64.85413897180399z" style="fill:rgb(238,238,238); fill-opacity: 0.4"></path><path d="M91.7412354419956,-37.084269671429915L91.7412354419956,31.726339441884672" style="fill:none;stroke:rgb(0,0,0);stroke-width:1;stroke-linecap:round"></path><path d="M32.42126067496955,34.44854093654084L32.42126067496955,24.00952215656083L66.41343561169009,12.060349364332208zM40.884287300019665,37.438258120112145L32.42126067496955,34.44854093654084L66.41343561169009,12.060349364332208zM32.42126067496955,24.00952215656083L40.884287300019665,26.999239340132135L66.41343561169009,12.060349364332208zM40.884287300019665,26.999239340132135L40.884287300019665,37.438258120112145L66.41343561169009,12.060349364332208z" style="fill:rgb(255,187,187); fill-opacity: 0.4"></path><path d="M32.42126146989365,24.009521806370497L32.42126146989365,34.44854058635051M32.42126146989365,34.44854058635051L-20.109553866721484,57.590100034772796M32.42126146989365,34.44854058635051L40.88428809494377,37.43825776992181M32.42126086104914,24.00952114111809L32.42126086104914,34.448539921098096M32.42126086104914,34.448539921098096L40.884287385212126,37.4382570690292" style="fill:none;stroke:rgb(0,0,0);stroke-width:1;stroke-linecap:round"></path><path d="M67.44826966382571,54.63532117350156L-0.380068415798819,30.67373427626823L-0.380068415798819,-52.99152242187441z" style="fill:rgb(238,238,238); fill-opacity: 0.4"></path><path d="M40.88428809494377,37.43825776992181L32.42126146989365,34.44854058635051L32.42126146989365,24.0095218063705z" style="fill:rgb(153,221,255); fill-opacity: 0.4"></path><path d="M32.42126067496955,24.00952215656083L32.42126067496955,34.44854093654084L40.884287300019665,37.438258120112145z" style="fill:rgb(255,187,187); fill-opacity: 0.4"></path><path d="M32.42126146989365,24.009521806370497L-20.109553866721484,47.151081254792786M32.42126146989365,24.009521806370497L40.88428809494377,26.99923898994181M32.42126086104914,24.00952114111809L40.884287385212126,26.999238289049188M-0.380068415798819,-52.99152242187441L-52.91088375241396,-29.84996297345211M-0.380068415798819,-52.99152242187441L67.44826966382571,-29.029935524641076M-11.646527241671366,60.579817218344104L40.88428809494377,37.43825776992181M40.88428809494377,26.99923898994181L40.88428809494377,37.43825776992181M40.884287385212126,37.4382570690292L40.884287385212126,26.999238289049188" style="fill:none;stroke:rgb(0,0,0);stroke-width:1;stroke-linecap:round"></path><path d="M40.88428809494377,26.99923898994181L40.88428809494377,37.43825776992181L32.42126146989365,24.0095218063705z" style="fill:rgb(153,221,255); fill-opacity: 0.4"></path><path d="M32.42126067496955,24.00952215656083L40.884287300019665,37.438258120112145L40.884287300019665,26.999239340132135z" style="fill:rgb(255,187,187); fill-opacity: 0.4"></path><path d="M-11.646527241671366,50.140798438364094L40.88428809494377,26.99923898994181" style="fill:none;stroke:rgb(0,0,0);stroke-width:1;stroke-linecap:round"></path><path d="M-0.380068415798819,-52.99152242187441L-0.380068415798819,30.67373427626823L-52.91088375241396,-29.849962973452115zM-0.380068415798819,30.67373427626823L-52.91088375241396,53.81529372469052L-52.91088375241396,-29.849962973452115z" style="fill:rgb(238,238,238); fill-opacity: 0.4"></path><path d="M32.42126146989365,24.0095218063705L32.42126146989365,34.44854058635051L-20.109553866721484,47.151081254792786zM40.88428809494377,37.43825776992181L-11.646527241671366,60.57981721834411L32.42126146989365,34.44854058635051z" style="fill:rgb(153,221,255); fill-opacity: 0.4"></path><path d="M-52.91088375241396,-29.84996297345211L-52.91088375241396,53.81529372469052M-52.91088375241396,53.81529372469052L14.917454327210583,77.77688062192385" style="fill:none;stroke:rgb(0,0,0);stroke-width:1;stroke-linecap:round"></path><path d="M14.917454327210583,77.77688062192385L-52.91088375241396,53.81529372469052L-0.380068415798819,30.67373427626823z" style="fill:rgb(238,238,238); fill-opacity: 0.4"></path><path d="M40.88428809494377,26.99923898994181L32.42126146989365,24.0095218063705L-20.109553866721484,47.151081254792786z" style="fill:rgb(153,221,255); fill-opacity: 0.4"></path><path d="M67.44826966382571,54.63532117350156L14.917454327210583,77.77688062192385L-0.380068415798819,30.67373427626823z" style="fill:rgb(238,238,238); fill-opacity: 0.4"></path><path d="M14.917454327210583,77.77688062192385L67.44826966382571,54.63532117350156M67.44826966382571,-29.029935524641076L67.44826966382571,54.63532117350156" style="fill:none;stroke:rgb(0,0,0);stroke-width:1;stroke-linecap:round"></path><path d="M-11.646527241671366,60.57981721834411L40.88428809494377,37.43825776992181L40.88428809494377,26.99923898994181z" style="fill:rgb(153,221,255); fill-opacity: 0.4"></path><path d="M67.44826966382571,-29.02993552464108L67.44826966382571,54.63532117350156L-0.380068415798819,-52.99152242187441z" style="fill:rgb(238,238,238); fill-opacity: 0.4"></path><path d="M-100.01701612056695,-43.13985312250211L-100.01701612056695,81.9501701458868M-100.01701612056695,81.9501701458868L-116.66889040539458,89.28587084310014M-100.01701612056695,81.9501701458868L1.394832996782867,117.7757395735484" style="fill:none;stroke:rgb(0,0,0);stroke-width:1;stroke-linecap:round"></path><path d="M32.42126146989365,34.44854058635051L-20.109553866721484,57.5901000347728L-20.109553866721484,47.151081254792786zM-11.646527241671366,60.57981721834411L-20.109553866721484,57.5901000347728L32.42126146989365,34.44854058635051z" style="fill:rgb(153,221,255); fill-opacity: 0.4"></path><path d="M67.44826966382571,-29.02993552464108L-0.380068415798819,-52.99152242187441L-52.91088375241396,-29.849962973452115z" style="fill:rgb(238,238,238); fill-opacity: 0.4"></path><path d="M-11.646527241671366,50.140798438364094L40.88428809494377,26.99923898994181L-20.109553866721484,47.151081254792786zM-11.646527241671366,50.140798438364094L-11.646527241671366,60.57981721834411L40.88428809494377,26.99923898994181z" style="fill:rgb(153,221,255); fill-opacity: 0.4"></path><path d="M-116.66889040539458,-35.80415242528878L-116.66889040539458,89.28587084310014M-116.66889040539458,89.28587084310014L-15.257041288044753,125.11144027076175M-85.74127837430746,28.03968773284896L-37.136236586281846,27.63763526826959M-85.74127837430746,51.00552904880498L-37.136236586281846,27.63763526826959M-67.12261979919721,57.58290685266186L-37.136236586281846,27.63763526826959M-67.12261979919721,34.617065536705844L-37.136236586281846,27.63763526826959M-20.109553866721484,47.151081254792786L-20.109553866721484,57.590100034772796M-20.109553866721484,57.590100034772796L-11.646527241671366,60.579817218344104" style="fill:none;stroke:rgb(0,0,0);stroke-width:1;stroke-linecap:round"></path><path d="M14.917454327210583,77.77688062192385L67.44826966382571,54.63532117350156L67.44826966382571,-29.02993552464108z" style="fill:rgb(238,238,238); fill-opacity: 0.4"></path><path d="M-20.109553866721484,47.151081254792786L-11.646527241671366,50.140798438364094M-85.74127837430746,28.03968773284896L-85.74127837430746,51.00552904880498M-85.74127837430746,51.00552904880498L-67.12261979919721,57.58290685266186M-85.74127939193275,28.039688238791975L-85.74127939193275,51.005529554747994M-85.74127939193275,51.005529554747994L-102.39315367676036,58.341230251961335M-85.74127939193275,51.005529554747994L-67.12262081682249,57.58290735860488" style="fill:none;stroke:rgb(0,0,0);stroke-width:1;stroke-linecap:round"></path><path d="M-20.109553866721484,47.151081254792786L-20.109553866721484,57.5901000347728L-11.646527241671366,50.140798438364094z" style="fill:rgb(153,221,255); fill-opacity: 0.4"></path><path d="M-85.74127954224726,51.005529620966506L-85.74127954224726,28.039688305010493L-37.136238168348115,27.637635614918327z" style="fill:rgb(255,187,187); fill-opacity: 0.4"></path><path d="M-52.91088375241396,-29.84996297345211L14.917454327210583,-5.888376076218786" style="fill:none;stroke:rgb(0,0,0);stroke-width:1;stroke-linecap:round"></path><path d="M-20.109553866721484,57.5901000347728L-11.646527241671366,60.57981721834411L-11.646527241671366,50.140798438364094z" style="fill:rgb(153,221,255); fill-opacity: 0.4"></path><path d="M-11.646527241671366,50.140798438364094L-11.646527241671366,60.579817218344104" style="fill:none;stroke:rgb(0,0,0);stroke-width:1;stroke-linecap:round"></path><path d="M-100.01701612056698,81.9501701458868L-116.66889040539459,89.28587084310014L-116.66889040539459,-35.80415242528877z" style="fill:rgb(238,238,238); fill-opacity: 0.4"></path><path d="M-67.12262096713701,57.58290742482339L-85.74127954224726,51.005529620966506L-37.136238168348115,27.637635614918327z" style="fill:rgb(255,187,187); fill-opacity: 0.4"></path><path d="M14.917454327210583,-5.888376076218786L67.44826966382571,-29.029935524641076" style="fill:none;stroke:rgb(0,0,0);stroke-width:1;stroke-linecap:round"></path><path d="M-52.91088375241396,-29.849962973452115L-52.91088375241396,53.81529372469052L14.917454327210583,-5.88837607621879z" style="fill:rgb(238,238,238); fill-opacity: 0.4"></path><path d="M-67.12262081682249,57.582907358604885L-85.74127939193275,51.005529554748L-85.74127939193275,28.03968823879198z" style="fill:rgb(153,221,255); fill-opacity: 0.4"></path><path d="M-85.74127954224726,28.039688305010493L-85.74127954224726,51.005529620966506L-67.12262096713701,57.58290742482339zM-85.74127954224726,28.039688305010493L-67.12262096713701,34.61706610886737L-37.136238168348115,27.637635614918327z" style="fill:rgb(255,187,187); fill-opacity: 0.4"></path><path d="M-85.74127837430746,28.03968773284896L-67.12261979919721,34.617065536705844M-85.74127939193275,28.039688238791975L-102.39315367676036,35.375388936005315M-85.74127939193275,28.039688238791975L-67.12262081682249,34.61706604264886" style="fill:none;stroke:rgb(0,0,0);stroke-width:1;stroke-linecap:round"></path><path d="M-67.12262096713701,34.61706610886737L-67.12262096713701,57.58290742482339L-37.136238168348115,27.637635614918327z" style="fill:rgb(255,187,187); fill-opacity: 0.4"></path><path d="M-15.257041288044759,125.11144027076175L-116.66889040539459,89.28587084310014L-100.01701612056698,81.9501701458868z" style="fill:rgb(238,238,238); fill-opacity: 0.4"></path><path d="M-85.74127939193275,28.03968823879198L-85.74127939193275,51.005529554748L-102.39315367676036,35.37538893600532z" style="fill:rgb(153,221,255); fill-opacity: 0.4"></path><path d="M-52.91088375241396,53.81529372469052L14.917454327210583,77.77688062192385L14.917454327210583,-5.88837607621879zM-100.01701612056698,-43.13985312250211L-100.01701612056698,81.9501701458868L-116.66889040539459,-35.80415242528877z" style="fill:rgb(238,238,238); fill-opacity: 0.4"></path><path d="M-85.74127939193275,51.005529554748L-102.39315367676036,58.34123025196134L-102.39315367676036,35.37538893600532z" style="fill:rgb(153,221,255); fill-opacity: 0.4"></path><path d="M-67.12261979919721,57.58290685266186L-67.12261979919721,34.617065536705844M-83.7744951016501,64.91860805581821L-67.12262081682249,57.58290735860488M-67.12262081682249,34.61706604264886L-67.12262081682249,57.58290735860488" style="fill:none;stroke:rgb(0,0,0);stroke-width:1;stroke-linecap:round"></path><path d="M-67.12262081682249,57.582907358604885L-83.7744951016501,64.91860805581821L-85.74127939193275,51.005529554748zM-83.7744951016501,64.91860805581821L-102.39315367676036,58.34123025196134L-85.74127939193275,51.005529554748zM-67.12262081682249,34.61706604264886L-67.12262081682249,57.582907358604885L-85.74127939193275,28.03968823879198z" style="fill:rgb(153,221,255); fill-opacity: 0.4"></path><path d="M-85.74127954224726,28.039688305010493L-67.12262096713701,57.58290742482339L-67.12262096713701,34.61706610886737z" style="fill:rgb(255,187,187); fill-opacity: 0.4"></path><path d="M-102.39315367676036,35.375388936005315L-102.39315367676036,58.341230251961335M-102.39315367676036,58.341230251961335L-83.7744951016501,64.91860805581821" style="fill:none;stroke:rgb(0,0,0);stroke-width:1;stroke-linecap:round"></path><path d="M1.394832996782851,117.7757395735484L-100.01701612056698,81.9501701458868L-100.01701612056698,-43.13985312250211zM14.917454327210583,-5.88837607621879L67.44826966382571,-29.02993552464108L-52.91088375241396,-29.849962973452115z" style="fill:rgb(238,238,238); fill-opacity: 0.4"></path><path d="M14.917454327210583,-5.888376076218786L14.917454327210583,77.77688062192385" style="fill:none;stroke:rgb(0,0,0);stroke-width:1;stroke-linecap:round"></path><path d="M-67.12262081682249,34.61706604264886L-85.74127939193275,28.03968823879198L-102.39315367676036,35.37538893600532zM-83.7744951016501,64.91860805581821L-67.12262081682249,57.582907358604885L-67.12262081682249,34.61706604264886z" style="fill:rgb(153,221,255); fill-opacity: 0.4"></path><path d="M-83.7744951016501,41.95276673986219L-67.12262081682249,34.61706604264886" style="fill:none;stroke:rgb(0,0,0);stroke-width:1;stroke-linecap:round"></path><path d="M14.917454327210583,-5.88837607621879L14.917454327210583,77.77688062192385L67.44826966382571,-29.02993552464108z" style="fill:rgb(238,238,238); fill-opacity: 0.4"></path><path d="M-100.01701612056695,-43.13985312250211L-116.66889040539458,-35.80415242528878M-100.01701612056695,-43.13985312250211L1.394832996782867,-7.314283694840504M-102.39315367676036,35.375388936005315L-83.7744951016501,41.95276673986219" style="fill:none;stroke:rgb(0,0,0);stroke-width:1;stroke-linecap:round"></path><path d="M-102.39315367676036,35.37538893600532L-102.39315367676036,58.34123025196134L-83.7744951016501,41.952766739862206zM-102.39315367676036,58.34123025196134L-83.7744951016501,64.91860805581821L-83.7744951016501,41.952766739862206zM-83.7744951016501,41.952766739862206L-67.12262081682249,34.61706604264886L-102.39315367676036,35.37538893600532z" style="fill:rgb(153,221,255); fill-opacity: 0.4"></path><path d="M-83.7744951016501,41.95276673986219L-83.7744951016501,64.91860805581821" style="fill:none;stroke:rgb(0,0,0);stroke-width:1;stroke-linecap:round"></path><path d="M-83.7744951016501,41.952766739862206L-83.7744951016501,64.91860805581821L-67.12262081682249,34.61706604264886z" style="fill:rgb(153,221,255); fill-opacity: 0.4"></path><path d="M1.394832996782851,117.7757395735484L-15.257041288044759,125.11144027076175L-100.01701612056698,81.9501701458868z" style="fill:rgb(238,238,238); fill-opacity: 0.4"></path><path d="M-116.66889040539458,-35.80415242528878L-15.257041288044753,0.021417002372831853" style="fill:none;stroke:rgb(0,0,0);stroke-width:1;stroke-linecap:round"></path><path d="M-116.66889040539459,-35.80415242528877L-116.66889040539459,89.28587084310014L-15.257041288044759,0.021417002372835506z" style="fill:rgb(238,238,238); fill-opacity: 0.4"></path><path d="M-15.257041288044753,125.11144027076175L1.394832996782867,117.7757395735484M1.394832996782867,-7.314283694840504L1.394832996782867,117.7757395735484" style="fill:none;stroke:rgb(0,0,0);stroke-width:1;stroke-linecap:round"></path><path d="M1.394832996782851,-7.314283694840505L-100.01701612056698,-43.13985312250211L-116.66889040539459,-35.80415242528877zM-116.66889040539459,89.28587084310014L-15.257041288044759,125.11144027076175L-15.257041288044759,0.021417002372835506zM1.394832996782851,-7.314283694840505L1.394832996782851,117.7757395735484L-100.01701612056698,-43.13985312250211z" style="fill:rgb(238,238,238); fill-opacity: 0.4"></path><path d="M-15.257041288044753,0.021417002372831853L-15.257041288044753,125.11144027076175" style="fill:none;stroke:rgb(0,0,0);stroke-width:1;stroke-linecap:round"></path><path d="M-15.257041288044759,125.11144027076175L1.394832996782851,117.7757395735484L1.394832996782851,-7.314283694840505zM-15.257041288044759,0.021417002372835506L1.394832996782851,-7.314283694840505L-116.66889040539459,-35.80415242528877zM-15.257041288044759,0.021417002372835506L-15.257041288044759,125.11144027076175L1.394832996782851,-7.314283694840505z" style="fill:rgb(238,238,238); fill-opacity: 0.4"></path><path d="M-15.257041288044753,0.021417002372831853L1.394832996782867,-7.314283694840504" style="fill:none;stroke:rgb(0,0,0);stroke-width:1;stroke-linecap:round"></path></svg>