<svg viewBox="-768 -337 1536 674" width="1536" height="674" style="background-color: rgb(255, 255, 255);" xmlns="http://www.w3.org/2000/svg"><path d="M-43.44132387444792,30.11780253802266L-64.22217490100337,24.900459053565797M-64.22217490100337,-88.96876127402454L-64.22217490100337,24.900459053565797M-64.22217490100337,24.900459053565797L-132.3388252930756,63.521973162632236M-43.44132387444792,-83.7514177895677L-43.44132387444792,30.11780253802266M-43.44132387444792,30.11780253802266L-111.55797426652015,68.73931664708908" style="fill:none;stroke:rgb(0,0,0);stroke-width:1;stroke-linecap:round"></path><path d="M-43.441323874447924,30.11780253802266L-64.22217490100337,24.900459053565797L-64.22217490100337,-88.96876127402454z" style="fill:rgb(238,238,238); fill-opacity: 0.4"></path><path d="M-57.06202493989338,8.542708793890137L-77.84287596644883,3.325365309433278M-77.84287596644883,-19.820299599724837L-77.84287596644883,3.325365309433278M-77.84287596644883,3.325365309433278L-91.68862954387248,11.175780208921074" style="fill:none;stroke:rgb(0,0,0);stroke-width:1;stroke-linecap:round"></path><path d="M-132.3388252930756,63.521973162632236L-64.22217490100337,24.900459053565797L-43.441323874447924,30.11780253802266z" style="fill:rgb(238,238,238); fill-opacity: 0.4"></path><path d="M-57.06202493989336,8.54270879389014L-77.84287596644882,3.325365309433278L-77.84287596644882,-19.820299599724837z" style="fill:rgb(153,221,255); fill-opacity: 0.4"></path><path d="M-43.441323874447924,-83.7514177895677L-43.441323874447924,30.11780253802266L-64.22217490100337,-88.96876127402454z" style="fill:rgb(238,238,238); fill-opacity: 0.4"></path><path d="M-57.06202493989338,-14.602956115267974L-77.84287596644883,-19.820299599724837M-77.84287596644883,-19.820299599724837L-91.68862954387248,-11.969884700237039" style="fill:none;stroke:rgb(0,0,0);stroke-width:1;stroke-linecap:round"></path><path d="M-91.68862954387248,11.175780208921077L-77.84287596644882,3.325365309433278L-57.06202493989336,8.54270879389014zM-77.84287596644882,-19.820299599724837L-77.84287596644882,3.325365309433278L-91.68862954387248,-11.96988470023704z" style="fill:rgb(153,221,255); fill-opacity: 0.4"></path><path d="M-57.06202820101685,-14.60295690722642L-57.06202820101685,8.542708001931691M-57.06202820101685,8.542708001931691L-70.90778177844051,16.39312290141949M-57.06202820101685,8.542708001931691L-29.66086391637525,8.213064666469974M-57.06202493989338,-14.602956115267974L-57.06202493989338,8.542708793890137M-57.06202493989338,8.542708793890137L-70.90777851731703,16.393123693377937" style="fill:none;stroke:rgb(0,0,0);stroke-width:1;stroke-linecap:round"></path><path d="M-57.06202493989336,-14.602956115267974L-57.06202493989336,8.54270879389014L-77.84287596644882,-19.820299599724837z" style="fill:rgb(153,221,255); fill-opacity: 0.4"></path><path d="M-43.44132387444792,-83.7514177895677L-64.22217490100337,-88.96876127402454M-64.22217490100337,-88.96876127402454L-132.3388252930756,-50.347247164958105" style="fill:none;stroke:rgb(0,0,0);stroke-width:1;stroke-linecap:round"></path><path d="M-77.84287596644882,3.325365309433278L-91.68862954387248,11.175780208921077L-91.68862954387248,-11.96988470023704z" style="fill:rgb(153,221,255); fill-opacity: 0.4"></path><path d="M-91.68862954387248,-11.969884700237039L-91.68862954387248,11.175780208921074M-91.68862954387248,11.175780208921074L-70.90777851731703,16.393123693377937" style="fill:none;stroke:rgb(0,0,0);stroke-width:1;stroke-linecap:round"></path><path d="M-70.90777851731703,16.39312369337794L-91.68862954387248,11.175780208921077L-57.06202493989336,8.54270879389014z" style="fill:rgb(153,221,255); fill-opacity: 0.4"></path><path d="M-57.06202820101685,-14.60295690722642L-70.90778177844052,-6.752542007738624M-57.06202820101685,-14.60295690722642L-29.66086391637525,8.213064666469974M-57.06202493989338,-14.602956115267974L-70.90777851731703,-6.752541215780178" style="fill:none;stroke:rgb(0,0,0);stroke-width:1;stroke-linecap:round"></path><path d="M-57.06202512747966,-14.602956162364318L-57.06202512747966,8.542708746793794L-70.90777870490334,16.393123646281595z" style="fill:rgb(255,187,187); fill-opacity: 0.4"></path><path d="M-70.90777851731703,16.39312369337794L-57.06202493989336,8.54270879389014L-57.06202493989336,-14.602956115267974z" style="fill:rgb(153,221,255); fill-opacity: 0.4"></path><path d="M71.88882760601062,51.52876988614473L-14.448308503093976,29.852540458876334M-14.448308503093976,-54.467819045153185L-14.448308503093976,29.852540458876334M-14.448308503093976,29.852540458876334L-64.88880886610693,58.45184011946571" style="fill:none;stroke:rgb(0,0,0);stroke-width:1;stroke-linecap:round"></path><path d="M-70.90777851731703,-6.752541215780176L-57.06202493989336,-14.602956115267974L-77.84287596644882,-19.820299599724837zM-91.68862954387248,-11.96988470023704L-70.90777851731703,-6.752541215780176L-77.84287596644882,-19.820299599724837z" style="fill:rgb(153,221,255); fill-opacity: 0.4"></path><path d="M-43.44132387444792,-83.7514177895677L-111.55797426652015,-45.12990368050124M-91.68862954387248,-11.969884700237039L-70.90777851731703,-6.752541215780178" style="fill:none;stroke:rgb(0,0,0);stroke-width:1;stroke-linecap:round"></path><path d="M-111.55797426652015,68.73931664708908L-43.441323874447924,30.11780253802266L-43.441323874447924,-83.7514177895677z" style="fill:rgb(238,238,238); fill-opacity: 0.4"></path><path d="M-91.68862954387248,-11.96988470023704L-91.68862954387248,11.175780208921077L-70.90777851731703,-6.752541215780176z" style="fill:rgb(153,221,255); fill-opacity: 0.4"></path><path d="M-57.06202512747966,8.542708746793794L-57.06202512747966,-14.602956162364318L-29.66086481534776,8.21306501305031z" style="fill:rgb(255,187,187); fill-opacity: 0.4"></path><path d="M-91.68862954387248,11.175780208921077L-70.90777851731703,16.39312369337794L-70.90777851731703,-6.752541215780176z" style="fill:rgb(153,221,255); fill-opacity: 0.4"></path><path d="M-64.22217490100337,-88.96876127402454L-64.22217490100337,24.900459053565797L-132.3388252930756,-50.347247164958105z" style="fill:rgb(238,238,238); fill-opacity: 0.4"></path><path d="M-57.06202512747966,-14.602956162364318L-70.90777870490334,16.393123646281595L-70.90777870490334,-6.7525412628765205z" style="fill:rgb(255,187,187); fill-opacity: 0.4"></path><path d="M-70.90777851731703,-6.752541215780176L-70.90777851731703,16.39312369337794L-57.06202493989336,-14.602956115267974z" style="fill:rgb(153,221,255); fill-opacity: 0.4"></path><path d="M-70.90778177844051,16.39312290141949L-70.90778177844052,-6.752542007738624M-70.90778177844051,16.39312290141949L-29.66086391637525,8.213064666469974M-70.90777851731703,-6.752541215780178L-70.90777851731703,16.393123693377937" style="fill:none;stroke:rgb(0,0,0);stroke-width:1;stroke-linecap:round"></path><path d="M-70.90777870490334,16.393123646281595L-57.06202512747966,8.542708746793794L-29.66086481534776,8.21306501305031zM-57.06202512747966,-14.602956162364318L-70.90777870490334,-6.7525412628765205L-29.66086481534776,8.21306501305031z" style="fill:rgb(255,187,187); fill-opacity: 0.4"></path><path d="M-111.55797426652015,68.73931664708908L-132.3388252930756,63.521973162632236L-43.441323874447924,30.11780253802266z" style="fill:rgb(238,238,238); fill-opacity: 0.4"></path><path d="M-70.90778177844052,-6.752542007738624L-29.66086391637525,8.213064666469974" style="fill:none;stroke:rgb(0,0,0);stroke-width:1;stroke-linecap:round"></path><path d="M-70.90777870490334,-6.7525412628765205L-70.90777870490334,16.393123646281595L-29.66086481534776,8.21306501305031z" style="fill:rgb(255,187,187); fill-opacity: 0.4"></path><path d="M-64.22217490100337,24.900459053565797L-132.3388252930756,63.521973162632236L-132.3388252930756,-50.347247164958105zM71.88882760601062,51.528769886144744L-14.448308503093976,29.852540458876334L-14.448308503093976,-54.467819045153185z" style="fill:rgb(238,238,238); fill-opacity: 0.4"></path><path d="M57.49259356784105,31.18686338347749L-28.844542541263557,9.510633956209091M-28.844542541263557,-1.0101228206809607L-28.844542541263557,9.510633956209091M-28.844542541263557,9.510633956209091L-35.138066894637944,13.079004365067181" style="fill:none;stroke:rgb(0,0,0);stroke-width:1;stroke-linecap:round"></path><path d="M-111.55797426652015,-45.12990368050125L-43.441323874447924,-83.7514177895677L-64.22217490100337,-88.96876127402454z" style="fill:rgb(238,238,238); fill-opacity: 0.4"></path><path d="M71.88882760601062,-32.79158961788478L-14.448308503093976,-54.467819045153185M-14.448308503093976,-54.467819045153185L-64.88880886610693,-25.86851938456381M57.49259356784105,20.66610660658744L-28.844542541263557,-1.0101228206809607M-28.844542541263557,-1.0101228206809607L-35.138066894637944,2.55824758817713" style="fill:none;stroke:rgb(0,0,0);stroke-width:1;stroke-linecap:round"></path><path d="M-28.844542541263557,-1.0101228206809585L-28.844542541263557,9.510633956209094L-35.13806689463796,2.55824758817713zM-28.844542541263557,9.510633956209094L-35.138066894637944,13.079004365067183L-35.13806689463796,2.55824758817713z" style="fill:rgb(153,221,255); fill-opacity: 0.4"></path><path d="M-132.3388252930756,-50.347247164958105L-132.3388252930756,63.521973162632236M-132.3388252930756,63.521973162632236L-111.55797426652015,68.73931664708908M-35.138066894637944,2.55824758817713L-35.138066894637944,13.079004365067181M-35.138066894637944,13.079004365067181L51.19906921446666,34.75523379233558" style="fill:none;stroke:rgb(0,0,0);stroke-width:1;stroke-linecap:round"></path><path d="M-64.88880886610693,58.45184011946571L-14.448308503093976,29.852540458876334L71.88882760601062,51.528769886144744z" style="fill:rgb(238,238,238); fill-opacity: 0.4"></path><path d="M-35.138066894637944,2.55824758817713L51.19906921446666,24.23447701544553" style="fill:none;stroke:rgb(0,0,0);stroke-width:1;stroke-linecap:round"></path><path d="M-14.448308503093976,-54.467819045153185L-14.448308503093976,29.852540458876334L-64.88880886610693,-25.868519384563815z" style="fill:rgb(238,238,238); fill-opacity: 0.4"></path><path d="M57.49259356784104,31.18686338347749L-28.844542541263557,9.510633956209094L-28.844542541263557,-1.0101228206809585zM-35.138066894637944,13.079004365067183L-28.844542541263557,9.510633956209094L57.49259356784104,31.18686338347749z" style="fill:rgb(153,221,255); fill-opacity: 0.4"></path><path d="M-111.55797426652015,-45.12990368050125L-111.55797426652015,68.73931664708908L-43.441323874447924,-83.7514177895677z" style="fill:rgb(238,238,238); fill-opacity: 0.4"></path><path d="M-111.55797426652015,-45.12990368050124L-111.55797426652015,68.73931664708908M71.88882760601062,-32.79158961788478L71.88882760601062,51.52876988614473M71.88882760601062,51.52876988614473L21.448327242997678,80.1280695467341" style="fill:none;stroke:rgb(0,0,0);stroke-width:1;stroke-linecap:round"></path><path d="M-14.448308503093976,29.852540458876334L-64.88880886610693,58.45184011946571L-64.88880886610693,-25.868519384563815zM71.88882760601062,-32.79158961788479L71.88882760601062,51.528769886144744L-14.448308503093976,-54.467819045153185zM-132.3388252930756,-50.347247164958105L-111.55797426652015,-45.12990368050125L-64.22217490100337,-88.96876127402454z" style="fill:rgb(238,238,238); fill-opacity: 0.4"></path><path d="M-35.13806689463796,2.55824758817713L51.19906921446665,24.23447701544553L-28.844542541263557,-1.0101228206809585zM-35.13806689463796,2.55824758817713L-35.138066894637944,13.079004365067183L51.19906921446665,24.23447701544553z" style="fill:rgb(153,221,255); fill-opacity: 0.4"></path><path d="M-132.3388252930756,63.521973162632236L-111.55797426652015,68.73931664708908L-111.55797426652015,-45.12990368050125z" style="fill:rgb(238,238,238); fill-opacity: 0.4"></path><path d="M57.49259356784104,20.66610660658744L57.49259356784104,31.18686338347749L-28.844542541263557,-1.0101228206809585z" style="fill:rgb(153,221,255); fill-opacity: 0.4"></path><path d="M-64.88880886610693,-25.86851938456381L-64.88880886610693,58.45184011946571M-64.88880886610693,58.45184011946571L21.448327242997678,80.1280695467341" style="fill:none;stroke:rgb(0,0,0);stroke-width:1;stroke-linecap:round"></path><path d="M51.19906921446666,34.75523379233558L-35.138066894637944,13.079004365067183L57.49259356784104,31.18686338347749zM51.19906921446665,24.23447701544553L57.49259356784104,20.66610660658744L-28.844542541263557,-1.0101228206809585z" style="fill:rgb(153,221,255); fill-opacity: 0.4"></path><path d="M-132.3388252930756,-50.347247164958105L-132.3388252930756,63.521973162632236L-111.55797426652015,-45.12990368050125z" style="fill:rgb(238,238,238); fill-opacity: 0.4"></path><path d="M-35.138066894637944,13.079004365067183L51.19906921446666,34.75523379233558L51.19906921446665,24.23447701544553z" style="fill:rgb(153,221,255); fill-opacity: 0.4"></path><path d="M21.448327242997678,80.1280695467341L-64.88880886610693,58.45184011946571L71.88882760601062,51.528769886144744z" style="fill:rgb(238,238,238); fill-opacity: 0.4"></path><path d="M57.49259356784105,20.66610660658744L57.49259356784105,31.18686338347749M57.49259356784105,31.18686338347749L51.19906921446666,34.75523379233558M57.49259447530888,20.666106781688637L57.49259447530888,31.186863809413076M57.49259447530888,31.186863809413076L51.19907012193448,34.75523421827117M57.49259447530888,31.186863809413076L90.81383376665596,36.49100318238454M210.1321545415659,82.41445096741361L105.2420984094873,56.08023345891516M105.2420984094873,-13.26916588685584L105.2420984094873,56.08023345891516M105.2420984094873,56.08023345891516L63.757237298240156,79.60176805432688M-132.3388252930756,-50.347247164958105L-111.55797426652015,-45.12990368050124M71.88882760601062,-32.79158961788478L21.448327242997678,-4.1922899572954115" style="fill:none;stroke:rgb(0,0,0);stroke-width:1;stroke-linecap:round"></path><path d="M21.448327242997678,80.1280695467341L71.88882760601062,51.528769886144744L71.88882760601062,-32.79158961788479z" style="fill:rgb(238,238,238); fill-opacity: 0.4"></path><path d="M57.49259356784105,20.66610660658744L51.19906921446666,24.23447701544553M57.49259447530888,20.666106781688637L51.19907012193448,24.234477190546727M57.49259447530888,20.666106781688637L90.81383376665596,36.49100318238454" style="fill:none;stroke:rgb(0,0,0);stroke-width:1;stroke-linecap:round"></path><path d="M57.49259329018581,20.66610653687794L57.49259329018581,31.186863313767994L51.19906893681143,34.75523372262608z" style="fill:rgb(255,187,187); fill-opacity: 0.4"></path><path d="M51.19906921446666,34.75523379233558L57.49259356784104,31.18686338347749L57.49259356784104,20.66610660658744z" style="fill:rgb(153,221,255); fill-opacity: 0.4"></path><path d="M21.448327242997678,-4.1922899572954115L71.88882760601062,-32.79158961788479L-14.448308503093976,-54.467819045153185z" style="fill:rgb(238,238,238); fill-opacity: 0.4"></path><path d="M57.49259329018581,20.66610653687794L51.19906893681143,34.75523372262608L51.199068936811415,24.23447694573603z" style="fill:rgb(255,187,187); fill-opacity: 0.4"></path><path d="M51.19906921446665,24.23447701544553L51.19906921446666,34.75523379233558L57.49259356784104,20.66610660658744z" style="fill:rgb(153,221,255); fill-opacity: 0.4"></path><path d="M51.19906921446666,24.23447701544553L51.19906921446666,34.75523379233558M51.19907012193448,34.75523421827117L51.19907012193448,24.234477190546727M51.19907012193448,34.75523421827117L90.81383376665596,36.49100318238454" style="fill:none;stroke:rgb(0,0,0);stroke-width:1;stroke-linecap:round"></path><path d="M57.49259329018581,31.186863313767994L57.49259329018581,20.66610653687794L90.81383641955841,36.49100360434752z" style="fill:rgb(255,187,187); fill-opacity: 0.4"></path><path d="M51.19907012193448,24.234477190546727L90.81383376665596,36.49100318238454" style="fill:none;stroke:rgb(0,0,0);stroke-width:1;stroke-linecap:round"></path><path d="M51.19906893681143,34.75523372262608L57.49259329018581,31.186863313767994L90.81383641955841,36.49100360434752z" style="fill:rgb(255,187,187); fill-opacity: 0.4"></path><path d="M-64.88880886610693,-25.868519384563815L21.448327242997678,-4.1922899572954115L-14.448308503093976,-54.467819045153185z" style="fill:rgb(238,238,238); fill-opacity: 0.4"></path><path d="M57.49259329018581,20.66610653687794L51.199068936811415,24.23447694573603L90.81383641955841,36.49100360434752zM51.199068936811415,24.23447694573603L51.19906893681143,34.75523372262608L90.81383641955841,36.49100360434752z" style="fill:rgb(255,187,187); fill-opacity: 0.4"></path><path d="M-64.88880886610693,-25.86851938456381L21.448327242997678,-4.1922899572954115" style="fill:none;stroke:rgb(0,0,0);stroke-width:1;stroke-linecap:round"></path><path d="M-64.88880886610693,-25.868519384563815L-64.88880886610693,58.45184011946571L21.448327242997678,-4.1922899572954115z" style="fill:rgb(238,238,238); fill-opacity: 0.4"></path><path d="M210.1321545415659,13.065051621642615L105.2420984094873,-13.26916588685584M105.2420984094873,-13.26916588685584L63.757237298240156,10.252368708555892" style="fill:none;stroke:rgb(0,0,0);stroke-width:1;stroke-linecap:round"></path><path d="M210.13215454156597,82.41445096741361L105.2420984094873,56.08023345891515L105.2420984094873,-13.269165886855847zM-64.88880886610693,58.45184011946571L21.448327242997678,80.1280695467341L21.448327242997678,-4.1922899572954115zM21.448327242997678,-4.1922899572954115L21.448327242997678,80.1280695467341L71.88882760601062,-32.79158961788479z" style="fill:rgb(238,238,238); fill-opacity: 0.4"></path><path d="M21.448327242997678,-4.1922899572954115L21.448327242997678,80.1280695467341" style="fill:none;stroke:rgb(0,0,0);stroke-width:1;stroke-linecap:round"></path><path d="M105.2420984094873,-13.269165886855847L105.2420984094873,56.08023345891515L63.757237298240156,10.252368708555888zM63.757237298240156,79.60176805432688L105.2420984094873,56.08023345891515L210.13215454156597,82.41445096741361zM105.2420984094873,56.08023345891515L63.757237298240156,79.60176805432688L63.757237298240156,10.252368708555888z" style="fill:rgb(238,238,238); fill-opacity: 0.4"></path><path d="M63.757237298240156,10.252368708555892L63.757237298240156,79.60176805432688M63.757237298240156,79.60176805432688L168.6472934303188,105.93598556282534" style="fill:none;stroke:rgb(0,0,0);stroke-width:1;stroke-linecap:round"></path><path d="M210.13215454156597,13.065051621642613L210.13215454156597,82.41445096741361L105.2420984094873,-13.269165886855847z" style="fill:rgb(238,238,238); fill-opacity: 0.4"></path><path d="M210.1321545415659,13.065051621642615L210.1321545415659,82.41445096741361M210.1321545415659,82.41445096741361L168.6472934303188,105.93598556282534" style="fill:none;stroke:rgb(0,0,0);stroke-width:1;stroke-linecap:round"></path><path d="M168.6472934303188,105.93598556282534L63.757237298240156,79.60176805432688L210.13215454156597,82.41445096741361z" style="fill:rgb(238,238,238); fill-opacity: 0.4"></path><path d="M63.757237298240156,10.252368708555892L168.6472934303188,36.586586217054354" style="fill:none;stroke:rgb(0,0,0);stroke-width:1;stroke-linecap:round"></path><path d="M63.757237298240156,10.252368708555888L168.6472934303188,36.58658621705435L105.2420984094873,-13.269165886855847zM168.6472934303188,36.58658621705435L210.13215454156597,13.065051621642613L105.2420984094873,-13.269165886855847z" style="fill:rgb(238,238,238); fill-opacity: 0.4"></path><path d="M210.1321545415659,13.065051621642615L168.6472934303188,36.586586217054354" style="fill:none;stroke:rgb(0,0,0);stroke-width:1;stroke-linecap:round"></path><path d="M168.6472934303188,105.93598556282534L210.13215454156597,82.41445096741361L210.13215454156597,13.065051621642613z" style="fill:rgb(238,238,238); fill-opacity: 0.4"></path><path d="M251.25003885500817,151.67960476043865L238.13878183849837,148.38782757187636M238.13878183849837,-12.045702628675958L238.13878183849837,148.38782757187636M238.13878183849837,148.38782757187636L229.41410449187077,153.3346393616564" style="fill:none;stroke:rgb(0,0,0);stroke-width:1;stroke-linecap:round"></path><path d="M63.757237298240156,10.252368708555888L63.757237298240156,79.60176805432688L168.6472934303188,36.58658621705435zM229.41410449187072,153.3346393616564L238.13878183849835,148.38782757187636L251.25003885500817,151.67960476043865z" style="fill:rgb(238,238,238); fill-opacity: 0.4"></path><path d="M251.25003885500817,-8.75392544011365L251.25003885500817,151.67960476043865M251.25003885500817,151.67960476043865L242.52536150838057,156.62641655021872M229.41410449187077,-7.098890838895889L229.41410449187077,153.3346393616564M229.41410449187077,153.3346393616564L242.52536150838057,156.62641655021872" style="fill:none;stroke:rgb(0,0,0);stroke-width:1;stroke-linecap:round"></path><path d="M242.52536150838057,156.62641655021872L229.41410449187072,153.3346393616564L251.25003885500817,151.67960476043865zM63.757237298240156,79.60176805432688L168.6472934303188,105.93598556282534L168.6472934303188,36.58658621705435z" style="fill:rgb(238,238,238); fill-opacity: 0.4"></path><path d="M197.8369068746295,61.62131020707153L219.27452502360038,67.00354490135231M242.52536150838057,-3.8071136503335805L242.52536150838057,156.62641655021872" style="fill:none;stroke:rgb(0,0,0);stroke-width:1;stroke-linecap:round"></path><path d="M251.25003885500817,151.67960476043865L238.13878183849835,148.38782757187636L238.13878183849835,-12.045702628675956zM168.6472934303188,36.58658621705435L168.6472934303188,105.93598556282534L210.13215454156597,13.065051621642613z" style="fill:rgb(238,238,238); fill-opacity: 0.4"></path><path d="M168.6472934303188,36.586586217054354L168.6472934303188,105.93598556282534" style="fill:none;stroke:rgb(0,0,0);stroke-width:1;stroke-linecap:round"></path><path d="M238.13878183849835,148.38782757187636L229.41410449187072,153.3346393616564L229.41410449187072,-7.098890838895887z" style="fill:rgb(238,238,238); fill-opacity: 0.4"></path><path d="M216.2817762755985,70.32595227066517L219.27452502360038,72.26392328979735L231.8848886406421,70.16956530975278zM221.12414539739677,61.699091609377334L217.42490464980398,63.796527080787676L231.8848886406421,70.16956530975278z" style="fill:rgb(0,0,0)"></path><path d="M242.52536150838057,156.62641655021872L251.25003885500817,151.67960476043865L251.25003885500817,-8.753925440113647z" style="fill:rgb(238,238,238); fill-opacity: 0.4"></path><path d="M217.42490464980398,63.796527080787676L216.2817762755985,70.32595227066517L231.8848886406421,70.16956530975278z" style="fill:rgb(0,0,0)"></path><path d="M229.41410449187072,153.3346393616564L242.52536150838057,156.62641655021872L242.52536150838057,-3.807113650333578zM238.13878183849835,-12.045702628675956L238.13878183849835,148.38782757187636L229.41410449187072,-7.098890838895887zM251.25003885500817,-8.753925440113647L251.25003885500817,151.67960476043865L238.13878183849835,-12.045702628675956zM229.41410449187072,-7.098890838895887L229.41410449187072,153.3346393616564L242.52536150838057,-3.807113650333578zM242.52536150838057,-3.807113650333578L242.52536150838057,156.62641655021872L251.25003885500817,-8.753925440113647z" style="fill:rgb(238,238,238); fill-opacity: 0.4"></path><path d="M251.25003885500817,-8.75392544011365L238.13878183849837,-12.045702628675958M238.13878183849837,-12.045702628675958L229.41410449187077,-7.098890838895889M251.25003885500817,-8.75392544011365L242.52536150838057,-3.8071136503335805" style="fill:none;stroke:rgb(0,0,0);stroke-width:1;stroke-linecap:round"></path><path d="M242.52536150838057,-3.807113650333578L251.25003885500817,-8.753925440113647L238.13878183849835,-12.045702628675956zM229.41410449187072,-7.098890838895887L242.52536150838057,-3.807113650333578L238.13878183849835,-12.045702628675956z" style="fill:rgb(238,238,238); fill-opacity: 0.4"></path><path d="M229.41410449187077,-7.098890838895889L242.52536150838057,-3.8071136503335805" style="fill:none;stroke:rgb(0,0,0);stroke-width:1;stroke-linecap:round"></path></svg>